<svg xmlns="http://www.w3.org/2000/svg" xmlns:xlink="http://www.w3.org/1999/xlink" version="1.1" id="Layer_1" x="0px" y="0px" style="enable-background:new 0 0 612 792;" xml:space="preserve" viewBox="180.33 80.44 262.44 262.44">
<style type="text/css">
	.st0{fill:#FFFFFF;}
	.st1{fill:#40474F;}
	.st2{fill:none;stroke:#AC8B2F;stroke-width:4.9181;stroke-miterlimit:10;}
	.st3{fill:#AC8B2F;}
</style>
<circle class="st0" cx="311.55" cy="211.66" r="131.22"/>
<path class="st1" d="M438.96,211.66c0,70.32-57.01,127.33-127.33,127.33S184.3,281.98,184.3,211.66S241.31,84.34,311.63,84.34  S438.96,141.34,438.96,211.66z M311.63,124.83c-47.96,0-86.84,38.88-86.84,86.84s38.88,86.84,86.84,86.84s86.84-38.88,86.84-86.84  S359.59,124.83,311.63,124.83z"/>
<g>
	<g>
		<path class="st2" d="M380.39,178.51c-12.07-25.93-38.35-43.9-68.84-43.9c-30.48,0-56.77,17.97-68.84,43.9L380.39,178.51z"/>
		<path class="st2" d="M277.14,178.52c6.03-25.93,19.18-43.9,34.42-43.9c15.28,0,28.44,18.06,34.46,44.08"/>
		<line class="st2" x1="311.55" y1="134.61" x2="311.55" y2="178.52"/>
		<line class="st2" x1="259.84" y1="154.97" x2="363.27" y2="154.97"/>
	</g>
	<g>
		<path class="st2" d="M380.39,244.31c-12.07,25.93-38.35,43.9-68.84,43.9c-30.48,0-56.77-17.97-68.84-43.9L380.39,244.31z"/>
		<path class="st2" d="M277.14,244.31c6.03,25.93,19.18,43.9,34.42,43.9c15.28,0,28.44-18.06,34.46-44.08"/>
		<line class="st2" x1="311.55" y1="288.22" x2="311.55" y2="244.31"/>
		<line class="st2" x1="259.84" y1="267.86" x2="363.27" y2="267.86"/>
	</g>
</g>
<g>
	<path class="st0" d="M238.02,125.08l-0.03,2.18c-1.25,0.08-2.11,0.36-3.01,1.21c-1.5,1.41-1.73,3.75,0.94,6.6   c2.71,2.9,4.59,3.18,6.25,1.63c0.6-0.56,1.07-1.23,1.3-1.99l-2.58-2.76l-1.59,1.49l-1.62-1.3l3.8-3.56l4.85,5.18   c-0.42,1.61-1.31,3.18-2.75,4.53c-2.94,2.76-6.38,2.41-9.78-1.23c-3.36-3.59-2.95-7.6-0.34-10.04   C234.95,125.62,236.41,125.15,238.02,125.08z"/>
	<path class="st0" d="M250.67,131.89l-8.66-11.65l2.24-1.67l8.66,11.65L250.67,131.89z"/>
	<path class="st0" d="M257.12,123.36l0.92,3.36l-2.48,1.45l-3.43-14.81l2.95-1.73l11.21,10.26l-2.54,1.48l-2.48-2.44L257.12,123.36z    M254.62,114.35l1.9,6.92l3.19-1.87L254.62,114.35z"/>
	<path class="st0" d="M272.53,104.77l-0.67,2.08c-1.02-0.32-1.96-0.31-2.88,0.08c-1.84,0.78-2.7,2.73-1.17,6.35   c1.49,3.52,3.48,4.37,5.4,3.56c1.14-0.48,1.71-1.36,2.24-2.26l1.85,1.04c-0.46,1.17-1.52,2.56-3.34,3.32   c-3.46,1.46-6.92,0.02-8.84-4.52c-1.89-4.49-0.38-8.02,2.87-9.4C269.74,104.28,271.06,104.32,272.53,104.77z"/>
	<path class="st0" d="M295.17,99.07l-1.08,1.9c-0.94-0.52-1.85-0.71-2.84-0.52c-1.96,0.38-3.2,2.12-2.45,5.98   c0.73,3.75,2.51,4.99,4.55,4.59c1.22-0.24,1.95-0.98,2.65-1.76l1.6,1.4c-0.69,1.06-2.01,2.19-3.95,2.57   c-3.69,0.72-6.78-1.4-7.72-6.24c-0.93-4.78,1.28-7.93,4.74-8.6C292.55,98.02,293.83,98.32,295.17,99.07z"/>
	<path class="st0" d="M303.5,99.15l0.25,4.05l4.65-0.28l0.13,2.05l-4.65,0.28l0.26,4.26l5.72-0.35l0.13,2.08l-8.49,0.52l-0.89-14.49   l8.41-0.51l-0.17,2.07L303.5,99.15z"/>
	<path class="st0" d="M317.42,105.65l-0.42,5.8l-2.77-0.2l1.05-14.48l4.32,0.31c3.79,0.28,5.64,1.8,5.43,4.67   c-0.14,1.97-1.19,3.07-3.22,3.7l3.33,6.58l-3.18-0.23l-2.78-6.04L317.42,105.65z M319.29,103.79c1.72,0.12,2.73-0.5,2.86-2.23   c0.11-1.57-0.74-2.31-2.75-2.45l-1.49-0.11l-0.34,4.67L319.29,103.79z"/>
	<path class="st0" d="M336.07,101.69l-2.52,12.04l-2.73-0.57l2.52-12.04l-3.82-0.8l0.45-2.16l10.54,2.21l-0.74,2.1L336.07,101.69z"/>
	<path class="st0" d="M340.91,115.68l4.43-13.81l2.66,0.85l-4.43,13.81L340.91,115.68z"/>
	<path class="st0" d="M355.92,107.93l-1.73,3.99l4.1,1.78l-0.82,1.89l-4.1-1.78l-2.41,5.55l-2.54-1.11l5.79-13.31l7.53,3.28   l-1.09,1.77L355.92,107.93z"/>
	<path class="st0" d="M359.26,123.36l7.09-12.66l2.44,1.36l-7.08,12.66L359.26,123.36z"/>
	<path class="st0" d="M375.55,118.77l-2.34,3.31l3.81,2.69l-1.19,1.68l-3.81-2.69l-2.46,3.48l4.69,3.3l-1.2,1.7l-6.95-4.9   l8.36-11.86l6.88,4.85l-1.43,1.51L375.55,118.77z"/>
	<path class="st0" d="M389.41,137.06c-4.02,4.29-7.63,2.9-10.16,0.53l-2.88-2.7l9.91-10.6l2.61,2.44   C391.68,129.35,393.51,132.68,389.41,137.06z M379.82,135.27l1,0.93c1.58,1.48,3.54,1.99,6.47-1.14c2.98-3.19,2.1-5.02,0.54-6.48   l-0.94-0.87L379.82,135.27z"/>
</g>
<g>
	<path class="st0" d="M224.38,265.65l-3.68,2.32l2.38,3.79l-1.74,1.1l-2.38-3.79l-5.12,3.22l-1.48-2.35l12.28-7.73l4.37,6.95   l-1.9,0.85L224.38,265.65z"/>
	<path class="st0" d="M233.88,286.55c-3.64,3.12-7.36,3.07-9.89,0.12s-2.09-6.6,1.6-9.75c3.62-3.1,7.37-3.05,9.9-0.1   S237.57,283.39,233.88,286.55z M227.5,279.13c-2.97,2.54-3.27,4.55-1.89,6.16c1.41,1.64,3.39,1.6,6.37-0.96   c2.95-2.53,3.32-4.48,1.9-6.14C232.48,276.55,230.46,276.59,227.5,279.13z"/>
	<path class="st0" d="M239.63,293.8l-3.76,4.44l-2.12-1.79l9.37-11.08l3.3,2.79c2.9,2.46,3.5,4.78,1.64,6.97   c-1.28,1.51-2.77,1.78-4.78,1.1l-1.18,7.28l-2.44-2.06l1.3-6.52L239.63,293.8z M242.23,293.39c1.31,1.11,2.5,1.21,3.63-0.12   c1.02-1.2,0.76-2.3-0.78-3.6l-1.14-0.96l-3.03,3.58L242.23,293.39z"/>
	<path class="st0" d="M256.29,298.03l-2.15,3.43l3.95,2.48l-1.09,1.74l-3.95-2.48l-2.26,3.61l4.86,3.05l-1.1,1.76l-7.21-4.52   l7.71-12.29l7.13,4.47l-1.34,1.59L256.29,298.03z"/>
	<path class="st0" d="M267.49,317.9l0.1-12.75c-0.37,1.23-0.9,3.02-1.96,5.49l-2.35,5.43l-2.31-1l5.77-13.32l3.22,1.39l-0.03,12.8   c0.2-0.78,0.8-2.81,1.62-4.7l2.7-6.24l2.31,1l-5.77,13.32L267.49,317.9z"/>
	<path class="st0" d="M290.45,311.53l-1.76,1.19c-0.75-1.11-1.63-1.73-2.79-2.03c-1.26-0.33-2.32,0-2.61,1.1   c-0.26,1.02,0.17,1.61,2.31,2.95c2.26,1.41,3.7,2.87,3.01,5.52c-0.66,2.52-3.09,3.8-6.45,2.92c-2.24-0.58-3.7-1.81-4.56-3.25   l1.84-1.21c0.74,1.17,1.74,1.99,3.2,2.38c1.5,0.39,2.77-0.06,3.13-1.42c0.31-1.18-0.14-1.86-2.17-3.1   c-2.71-1.68-3.68-3.19-3.13-5.33c0.61-2.34,3.02-3.36,5.79-2.64C288.32,309.13,289.52,310.09,290.45,311.53z"/>
	<path class="st0" d="M293.57,325.24l2.08-14.36l2.76,0.4l-2.08,14.36L293.57,325.24z"/>
	<path class="st0" d="M313.59,313.47l-1.48,1.61c-0.79-0.72-1.64-1.11-2.65-1.14c-1.99-0.07-3.59,1.35-3.73,5.27   c-0.13,3.82,1.33,5.42,3.41,5.49c1.24,0.04,2.12-0.52,2.98-1.12l1.24,1.72c-0.91,0.87-2.45,1.68-4.42,1.62   c-3.76-0.13-6.29-2.88-6.12-7.81c0.16-4.87,3.02-7.44,6.55-7.32C311.27,311.86,312.44,312.45,313.59,313.47z"/>
	<path class="st0" d="M328.98,321.95l-0.3,3.47l-2.83,0.51l1.88-15.08l3.37-0.6l6.99,13.49l-2.89,0.52l-1.48-3.15L328.98,321.95z    M329.74,312.64l-0.6,7.15l3.64-0.65L329.74,312.64z"/>
	<path class="st0" d="M351.01,319.7l-8.56-9.45c0.56,1.16,1.38,2.83,2.27,5.37l1.95,5.59l-2.38,0.83l-4.77-13.71l3.31-1.15   l8.64,9.45c-0.38-0.71-1.31-2.61-1.99-4.56l-2.23-6.43l2.38-0.83l4.77,13.71L351.01,319.7z"/>
	<path class="st0" d="M362.03,311.26l0.79,3.39l-2.54,1.36l-2.87-14.92l3.02-1.62l10.81,10.67l-2.59,1.39l-2.38-2.53L362.03,311.26z    M359.88,302.17l1.64,6.98l3.26-1.75L359.88,302.17z"/>
	<path class="st0" d="M381.79,299.95l1.08,2.02l-6.69,4.86l-8.53-11.74l2.24-1.63l7.2,9.9L381.79,299.95z"/>
	<path class="st0" d="M390.16,295.58l-2.08,1.9l-3.7-4.05l-9.54-3.52l2.26-2.07l6.81,2.91l-2.29-7.05l2.17-1.98l2.64,9.8   L390.16,295.58z"/>
	<path class="st0" d="M392.76,273.47l0.32,2.1c-1.32,0.21-2.26,0.73-3.03,1.65c-0.84,1-0.99,2.1-0.12,2.83   c0.8,0.67,1.52,0.54,3.65-0.83c2.24-1.43,4.18-2.11,6.27-0.36c1.99,1.67,2.1,4.42-0.12,7.07c-1.48,1.77-3.22,2.56-4.89,2.72   l-0.31-2.18c1.37-0.17,2.54-0.71,3.52-1.87c1-1.19,1.13-2.53,0.06-3.43c-0.93-0.78-1.74-0.67-3.73,0.62   c-2.68,1.73-4.46,1.96-6.15,0.54c-1.85-1.55-1.74-4.17,0.1-6.36C389.68,274.37,391.07,273.7,392.76,273.47z"/>
	<path class="st0" d="M399.14,265.28l10.4,6.57l-1.49,2.36l-10.4-6.57l-2.09,3.3l-1.86-1.18l5.75-9.1l1.71,1.43L399.14,265.28z"/>
</g>
<g>
	<path class="st3" d="M280.64,210.97v1.86c0,12.83-9.05,22.69-22.13,22.69c-13.08,0-23.62-11.28-23.62-24.24   c0-13.45,10.79-24.49,24.24-24.49c7.25,0,14.45,3.29,19.03,9.05l-4.09,3.91c-3.35-4.59-8.99-7.63-14.69-7.63   c-10.48,0-18.66,8.49-18.66,18.97c0,9.8,8.06,19.09,18.17,19.09c7.25,0,15.07-6.26,15.31-13.89H262.1v-5.33H280.64z"/>
	<path class="st3" d="M320.44,196.71c-3.35-2.98-7.94-4.59-12.34-4.59c-10.48,0-18.48,8.74-18.48,19.1   c0,10.23,7.94,18.97,18.35,18.97c4.59,0,8.99-1.74,12.46-4.84v6.88c-3.6,2.11-8.18,3.29-12.28,3.29   c-13.33,0-24.36-10.6-24.36-24.12c0-13.83,11.1-24.61,24.86-24.61c4.09,0,8.25,0.99,11.78,3.16V196.71z"/>
	<path class="st3" d="M331.91,193.12v13.14h16.24v5.33h-16.24v22.94h-5.83v-46.75h22.63v5.33H331.91z"/>
	<path class="st3" d="M354.73,222.81l-5.33,11.72h-6.26l22.32-48.73l22.32,48.73h-6.26l-5.33-11.72H354.73z M365.45,198.57   l-8.31,18.91h16.61L365.45,198.57z"/>
</g>
</svg>